{"title":"Tay Garnett - Mrs Parkington (1944)","uid":8442123,"size":1837009808,"categoryP":"video","categoryS":"movies","magnet":"?xt=urn:btih:95725c4b3f4cdb0244c50f8c047a4389e7e11637&amp;dn=Tay+Garnett+-+Mrs+Parkington+%281944%29&amp;tr=udp%3A%2F%2Ftracker.openbittorrent.com%3A80&amp;tr=udp%3A%2F%2Fopen.demonii.com%3A1337&amp;tr=udp%3A%2F%2Ftracker.coppersurfer.tk%3A6969&amp;tr=udp%3A%2F%2Fexodus.desync.com%3A6969","seeders":0,"leechers":1,"uploader":"moonflux","files":1,"time":1367796177,"description":"Format : AVI\nFormat/Info : Audio Video Interleave\nFile size : 1.71 GiB\nDuration : 2h 3mn\nOverall bit rate : 1 978 Kbps\n\nVideo\nID : 0\nFormat : MPEG-4 Visual\nFormat profile : Advanced Simple@L5\nFormat settings, BVOP : Yes\nFormat settings, QPel : No\nFormat settings, GMC : No warppoints\nFormat settings, Matrix : Custom\nCodec ID : XVID\nCodec ID/Hint : XviD\nDuration : 2h 3mn\nBit rate : 1 844 Kbps\nWidth : 640 pixels\nHeight : 480 pixels\nDisplay aspect ratio : 4:3\nFrame rate : 23.976 fps\nColor space : YUV\nChroma subsampling : 4:2:0\nBit depth : 8 bits\nScan type : Progressive\nBits/(Pixel*Frame) : 0.250\nStream size : 1.60 GiB (93%)\nWriting library : XviD 1.2.1 (UTC 2008-12-04)\n\nAudio\nID : 1\nFormat : MPEG Audio\nFormat version : Version 1\nFormat profile : Layer 3\nMode : Joint stereo\nMode extension : MS Stereo\nCodec ID : 55\nCodec ID/Hint : MP3\nDuration : 2h 3mn\nBit rate mode : Constant\nBit rate : 128 Kbps\nChannel(s) : 2 channels\nSampling rate : 48.0 KHz\nStream size : 113 MiB (6%)\nAlignment : Aligned on interleaves\nInterleave, duration : 167 ms (4.00 video frames)\nInterleave, preload duration : 216 ms\nTitle : Mrs. Parkington (1944) WAC DVDRip BBM\nWriting library : LAME3.98r\nEncoding settings : -m j -V 4 -q 2 -lowpass 17 -b 128 ","torrent":{"xt":"urn:btih:95725c4b3f4cdb0244c50f8c047a4389e7e11637","amp;dn":"Tay+Garnett+-+Mrs+Parkington+%281944%29","amp;tr":["udp%3A%2F%2Ftracker.openbittorrent.com%3A80","udp%3A%2F%2Fopen.demonii.com%3A1337","udp%3A%2F%2Ftracker.coppersurfer.tk%3A6969","udp%3A%2F%2Fexodus.desync.com%3A6969"],"infoHash":"95725c4b3f4cdb0244c50f8c047a4389e7e11637","infoHashBuffer":{"type":"Buffer","data":[149,114,92,75,63,76,219,2,68,197,15,140,4,122,67,137,231,225,22,55]},"announce":[],"urlList":[]}}